<mxfile host="drawio-plugin" modified="2021-10-26T14:25:28.219Z" agent="5.0 (Windows NT 6.2; Win64; x64) AppleWebKit/537.36 (KHTML, like Gecko) Chrome/89.0.4389.114 Safari/537.36" etag="HUW80s1bCRxkQBXrinAk" version="14.7.4" type="embed"><diagram id="wFvefsIL0ojLdiCR4RyT" name="Page-1"><mxGraphModel dx="573" dy="400" grid="1" gridSize="10" guides="1" tooltips="1" connect="1" arrows="1" fold="1" page="1" pageScale="1" pageWidth="827" pageHeight="1169" math="0" shadow="0"><root><mxCell id="0"/><mxCell id="1" parent="0"/><mxCell id="2EfxvqZbN9Tx3ir7eFEx-1" value="users" style="swimlane;fontStyle=0;childLayout=stackLayout;horizontal=1;startSize=26;horizontalStack=0;resizeParent=1;resizeParentMax=0;resizeLast=0;collapsible=1;marginBottom=0;" parent="1" vertex="1"><mxGeometry x="350" y="244" width="140" height="208" as="geometry"/></mxCell><mxCell id="2EfxvqZbN9Tx3ir7eFEx-2" value="id" style="text;strokeColor=#d6b656;fillColor=#fff2cc;align=left;verticalAlign=top;spacingLeft=4;spacingRight=4;overflow=hidden;rotatable=0;points=[[0,0.5],[1,0.5]];portConstraint=eastwest;" parent="2EfxvqZbN9Tx3ir7eFEx-1" vertex="1"><mxGeometry y="26" width="140" height="26" as="geometry"/></mxCell><mxCell id="3" value="login" style="text;strokeColor=#666666;fillColor=#f5f5f5;align=left;verticalAlign=top;spacingLeft=4;spacingRight=4;overflow=hidden;rotatable=0;points=[[0,0.5],[1,0.5]];portConstraint=eastwest;fontColor=#333333;" parent="2EfxvqZbN9Tx3ir7eFEx-1" vertex="1"><mxGeometry y="52" width="140" height="26" as="geometry"/></mxCell><mxCell id="4" value="password" style="text;strokeColor=#666666;fillColor=#f5f5f5;align=left;verticalAlign=top;spacingLeft=4;spacingRight=4;overflow=hidden;rotatable=0;points=[[0,0.5],[1,0.5]];portConstraint=eastwest;fontColor=#333333;" parent="2EfxvqZbN9Tx3ir7eFEx-1" vertex="1"><mxGeometry y="78" width="140" height="26" as="geometry"/></mxCell><mxCell id="2EfxvqZbN9Tx3ir7eFEx-10" value="name" style="text;strokeColor=#666666;fillColor=#f5f5f5;align=left;verticalAlign=top;spacingLeft=4;spacingRight=4;overflow=hidden;rotatable=0;points=[[0,0.5],[1,0.5]];portConstraint=eastwest;fontColor=#333333;" parent="2EfxvqZbN9Tx3ir7eFEx-1" vertex="1"><mxGeometry y="104" width="140" height="26" as="geometry"/></mxCell><mxCell id="2EfxvqZbN9Tx3ir7eFEx-11" value="surname" style="text;strokeColor=#666666;fillColor=#f5f5f5;align=left;verticalAlign=top;spacingLeft=4;spacingRight=4;overflow=hidden;rotatable=0;points=[[0,0.5],[1,0.5]];portConstraint=eastwest;fontColor=#333333;" parent="2EfxvqZbN9Tx3ir7eFEx-1" vertex="1"><mxGeometry y="130" width="140" height="26" as="geometry"/></mxCell><mxCell id="2EfxvqZbN9Tx3ir7eFEx-12" value="middlename" style="text;strokeColor=#666666;fillColor=#f5f5f5;align=left;verticalAlign=top;spacingLeft=4;spacingRight=4;overflow=hidden;rotatable=0;points=[[0,0.5],[1,0.5]];portConstraint=eastwest;fontColor=#333333;" parent="2EfxvqZbN9Tx3ir7eFEx-1" vertex="1"><mxGeometry y="156" width="140" height="26" as="geometry"/></mxCell><mxCell id="IveBiRxqO5vdpKggcDoV-33" value="email" style="text;strokeColor=#666666;fillColor=#f5f5f5;align=left;verticalAlign=top;spacingLeft=4;spacingRight=4;overflow=hidden;rotatable=0;points=[[0,0.5],[1,0.5]];portConstraint=eastwest;fontColor=#333333;" parent="2EfxvqZbN9Tx3ir7eFEx-1" vertex="1"><mxGeometry y="182" width="140" height="26" as="geometry"/></mxCell><mxCell id="2EfxvqZbN9Tx3ir7eFEx-14" value="rooms" style="swimlane;fontStyle=0;childLayout=stackLayout;horizontal=1;startSize=26;horizontalStack=0;resizeParent=1;resizeParentMax=0;resizeLast=0;collapsible=1;marginBottom=0;" parent="1" vertex="1"><mxGeometry x="350" y="460" width="140" height="182" as="geometry"/></mxCell><mxCell id="2EfxvqZbN9Tx3ir7eFEx-15" value="id" style="text;strokeColor=#d6b656;fillColor=#fff2cc;align=left;verticalAlign=top;spacingLeft=4;spacingRight=4;overflow=hidden;rotatable=0;points=[[0,0.5],[1,0.5]];portConstraint=eastwest;" parent="2EfxvqZbN9Tx3ir7eFEx-14" vertex="1"><mxGeometry y="26" width="140" height="26" as="geometry"/></mxCell><mxCell id="IveBiRxqO5vdpKggcDoV-6" value="number" style="text;strokeColor=#666666;fillColor=#f5f5f5;align=left;verticalAlign=top;spacingLeft=4;spacingRight=4;overflow=hidden;rotatable=0;points=[[0,0.5],[1,0.5]];portConstraint=eastwest;fontColor=#333333;" parent="2EfxvqZbN9Tx3ir7eFEx-14" vertex="1"><mxGeometry y="52" width="140" height="26" as="geometry"/></mxCell><mxCell id="2EfxvqZbN9Tx3ir7eFEx-16" value="number_of_rooms" style="text;strokeColor=#666666;fillColor=#f5f5f5;align=left;verticalAlign=top;spacingLeft=4;spacingRight=4;overflow=hidden;rotatable=0;points=[[0,0.5],[1,0.5]];portConstraint=eastwest;fontColor=#333333;" parent="2EfxvqZbN9Tx3ir7eFEx-14" vertex="1"><mxGeometry y="78" width="140" height="26" as="geometry"/></mxCell><mxCell id="2EfxvqZbN9Tx3ir7eFEx-17" value="class" style="text;strokeColor=#666666;fillColor=#f5f5f5;align=left;verticalAlign=top;spacingLeft=4;spacingRight=4;overflow=hidden;rotatable=0;points=[[0,0.5],[1,0.5]];portConstraint=eastwest;fontColor=#333333;" parent="2EfxvqZbN9Tx3ir7eFEx-14" vertex="1"><mxGeometry y="104" width="140" height="26" as="geometry"/></mxCell><mxCell id="IveBiRxqO5vdpKggcDoV-7" value="price_per_day" style="text;strokeColor=#666666;fillColor=#f5f5f5;align=left;verticalAlign=top;spacingLeft=4;spacingRight=4;overflow=hidden;rotatable=0;points=[[0,0.5],[1,0.5]];portConstraint=eastwest;fontColor=#333333;" parent="2EfxvqZbN9Tx3ir7eFEx-14" vertex="1"><mxGeometry y="130" width="140" height="26" as="geometry"/></mxCell><mxCell id="IveBiRxqO5vdpKggcDoV-5" value="is_free" style="text;strokeColor=#666666;fillColor=#f5f5f5;align=left;verticalAlign=top;spacingLeft=4;spacingRight=4;overflow=hidden;rotatable=0;points=[[0,0.5],[1,0.5]];portConstraint=eastwest;fontColor=#333333;" parent="2EfxvqZbN9Tx3ir7eFEx-14" vertex="1"><mxGeometry y="156" width="140" height="26" as="geometry"/></mxCell><mxCell id="2EfxvqZbN9Tx3ir7eFEx-20" value="requests" style="swimlane;fontStyle=0;childLayout=stackLayout;horizontal=1;startSize=26;horizontalStack=0;resizeParent=1;resizeParentMax=0;resizeLast=0;collapsible=1;marginBottom=0;" parent="1" vertex="1"><mxGeometry x="580" y="62" width="140" height="208" as="geometry"/></mxCell><mxCell id="2EfxvqZbN9Tx3ir7eFEx-21" value="id" style="text;strokeColor=#d6b656;fillColor=#fff2cc;align=left;verticalAlign=top;spacingLeft=4;spacingRight=4;overflow=hidden;rotatable=0;points=[[0,0.5],[1,0.5]];portConstraint=eastwest;" parent="2EfxvqZbN9Tx3ir7eFEx-20" vertex="1"><mxGeometry y="26" width="140" height="26" as="geometry"/></mxCell><mxCell id="2EfxvqZbN9Tx3ir7eFEx-22" value="user_id" style="text;strokeColor=#9673a6;fillColor=#e1d5e7;align=left;verticalAlign=top;spacingLeft=4;spacingRight=4;overflow=hidden;rotatable=0;points=[[0,0.5],[1,0.5]];portConstraint=eastwest;" parent="2EfxvqZbN9Tx3ir7eFEx-20" vertex="1"><mxGeometry y="52" width="140" height="26" as="geometry"/></mxCell><mxCell id="IveBiRxqO5vdpKggcDoV-2" value="number_of_rooms" style="text;strokeColor=#666666;fillColor=#f5f5f5;align=left;verticalAlign=top;spacingLeft=4;spacingRight=4;overflow=hidden;rotatable=0;points=[[0,0.5],[1,0.5]];portConstraint=eastwest;fontColor=#333333;" parent="2EfxvqZbN9Tx3ir7eFEx-20" vertex="1"><mxGeometry y="78" width="140" height="26" as="geometry"/></mxCell><mxCell id="IveBiRxqO5vdpKggcDoV-3" value="class" style="text;strokeColor=#666666;fillColor=#f5f5f5;align=left;verticalAlign=top;spacingLeft=4;spacingRight=4;overflow=hidden;rotatable=0;points=[[0,0.5],[1,0.5]];portConstraint=eastwest;fontColor=#333333;" parent="2EfxvqZbN9Tx3ir7eFEx-20" vertex="1"><mxGeometry y="104" width="140" height="26" as="geometry"/></mxCell><mxCell id="IveBiRxqO5vdpKggcDoV-4" value="start_date" style="text;strokeColor=#666666;fillColor=#f5f5f5;align=left;verticalAlign=top;spacingLeft=4;spacingRight=4;overflow=hidden;rotatable=0;points=[[0,0.5],[1,0.5]];portConstraint=eastwest;fontColor=#333333;" parent="2EfxvqZbN9Tx3ir7eFEx-20" vertex="1"><mxGeometry y="130" width="140" height="26" as="geometry"/></mxCell><mxCell id="IveBiRxqO5vdpKggcDoV-30" value="and_date" style="text;strokeColor=#666666;fillColor=#f5f5f5;align=left;verticalAlign=top;spacingLeft=4;spacingRight=4;overflow=hidden;rotatable=0;points=[[0,0.5],[1,0.5]];portConstraint=eastwest;fontColor=#333333;" parent="2EfxvqZbN9Tx3ir7eFEx-20" vertex="1"><mxGeometry y="156" width="140" height="26" as="geometry"/></mxCell><mxCell id="IveBiRxqO5vdpKggcDoV-1" value="status" style="text;strokeColor=#666666;fillColor=#f5f5f5;align=left;verticalAlign=top;spacingLeft=4;spacingRight=4;overflow=hidden;rotatable=0;points=[[0,0.5],[1,0.5]];portConstraint=eastwest;fontColor=#333333;" parent="2EfxvqZbN9Tx3ir7eFEx-20" vertex="1"><mxGeometry y="182" width="140" height="26" as="geometry"/></mxCell><mxCell id="2EfxvqZbN9Tx3ir7eFEx-26" value="roles" style="swimlane;fontStyle=0;childLayout=stackLayout;horizontal=1;startSize=26;horizontalStack=0;resizeParent=1;resizeParentMax=0;resizeLast=0;collapsible=1;marginBottom=0;" parent="1" vertex="1"><mxGeometry x="350" y="62" width="140" height="78" as="geometry"/></mxCell><mxCell id="2EfxvqZbN9Tx3ir7eFEx-27" value="id" style="text;strokeColor=#d6b656;fillColor=#fff2cc;align=left;verticalAlign=top;spacingLeft=4;spacingRight=4;overflow=hidden;rotatable=0;points=[[0,0.5],[1,0.5]];portConstraint=eastwest;" parent="2EfxvqZbN9Tx3ir7eFEx-26" vertex="1"><mxGeometry y="26" width="140" height="26" as="geometry"/></mxCell><mxCell id="2EfxvqZbN9Tx3ir7eFEx-28" value="name" style="text;strokeColor=#666666;fillColor=#f5f5f5;align=left;verticalAlign=top;spacingLeft=4;spacingRight=4;overflow=hidden;rotatable=0;points=[[0,0.5],[1,0.5]];portConstraint=eastwest;fontColor=#333333;" parent="2EfxvqZbN9Tx3ir7eFEx-26" vertex="1"><mxGeometry y="52" width="140" height="26" as="geometry"/></mxCell><mxCell id="2EfxvqZbN9Tx3ir7eFEx-30" value="users_roles" style="swimlane;fontStyle=0;childLayout=stackLayout;horizontal=1;startSize=26;horizontalStack=0;resizeParent=1;resizeParentMax=0;resizeLast=0;collapsible=1;marginBottom=0;" parent="1" vertex="1"><mxGeometry x="140" y="140" width="140" height="78" as="geometry"/></mxCell><mxCell id="2EfxvqZbN9Tx3ir7eFEx-33" value="role_id" style="text;strokeColor=#9673a6;fillColor=#e1d5e7;align=left;verticalAlign=top;spacingLeft=4;spacingRight=4;overflow=hidden;rotatable=0;points=[[0,0.5],[1,0.5]];portConstraint=eastwest;" parent="2EfxvqZbN9Tx3ir7eFEx-30" vertex="1"><mxGeometry y="26" width="140" height="26" as="geometry"/></mxCell><mxCell id="2EfxvqZbN9Tx3ir7eFEx-32" value="user_id" style="text;strokeColor=#9673a6;fillColor=#e1d5e7;align=left;verticalAlign=top;spacingLeft=4;spacingRight=4;overflow=hidden;rotatable=0;points=[[0,0.5],[1,0.5]];portConstraint=eastwest;" parent="2EfxvqZbN9Tx3ir7eFEx-30" vertex="1"><mxGeometry y="52" width="140" height="26" as="geometry"/></mxCell><mxCell id="2EfxvqZbN9Tx3ir7eFEx-35" value="" style="endArrow=none;html=1;rounded=0;entryX=0;entryY=0.5;entryDx=0;entryDy=0;exitX=1;exitY=0.5;exitDx=0;exitDy=0;" parent="1" source="2EfxvqZbN9Tx3ir7eFEx-33" target="2EfxvqZbN9Tx3ir7eFEx-27" edge="1"><mxGeometry width="50" height="50" relative="1" as="geometry"><mxPoint x="390" y="370" as="sourcePoint"/><mxPoint x="440" y="320" as="targetPoint"/></mxGeometry></mxCell><mxCell id="2EfxvqZbN9Tx3ir7eFEx-36" value="" style="endArrow=none;html=1;rounded=0;exitX=1;exitY=0.5;exitDx=0;exitDy=0;entryX=0;entryY=0.5;entryDx=0;entryDy=0;" parent="1" source="2EfxvqZbN9Tx3ir7eFEx-32" target="2EfxvqZbN9Tx3ir7eFEx-2" edge="1"><mxGeometry width="50" height="50" relative="1" as="geometry"><mxPoint x="390" y="370" as="sourcePoint"/><mxPoint x="440" y="320" as="targetPoint"/></mxGeometry></mxCell><mxCell id="2EfxvqZbN9Tx3ir7eFEx-37" value="" style="endArrow=none;html=1;rounded=0;entryX=1;entryY=0.5;entryDx=0;entryDy=0;exitX=0;exitY=0.5;exitDx=0;exitDy=0;" parent="1" source="2EfxvqZbN9Tx3ir7eFEx-22" target="2EfxvqZbN9Tx3ir7eFEx-2" edge="1"><mxGeometry width="50" height="50" relative="1" as="geometry"><mxPoint x="390" y="370" as="sourcePoint"/><mxPoint x="440" y="320" as="targetPoint"/></mxGeometry></mxCell><mxCell id="2EfxvqZbN9Tx3ir7eFEx-38" value="" style="endArrow=none;html=1;rounded=0;entryX=0;entryY=0.5;entryDx=0;entryDy=0;exitX=1;exitY=0.5;exitDx=0;exitDy=0;" parent="1" source="2EfxvqZbN9Tx3ir7eFEx-15" target="2EfxvqZbN9Tx3ir7eFEx-23" edge="1"><mxGeometry width="50" height="50" relative="1" as="geometry"><mxPoint x="390" y="370" as="sourcePoint"/><mxPoint x="440" y="320" as="targetPoint"/></mxGeometry></mxCell><mxCell id="IveBiRxqO5vdpKggcDoV-12" value="cards" style="swimlane;fontStyle=0;childLayout=stackLayout;horizontal=1;startSize=26;horizontalStack=0;resizeParent=1;resizeParentMax=0;resizeLast=0;collapsible=1;marginBottom=0;" parent="1" vertex="1"><mxGeometry x="140" y="320" width="140" height="130" as="geometry"/></mxCell><mxCell id="IveBiRxqO5vdpKggcDoV-13" value="id" style="text;strokeColor=#d6b656;fillColor=#fff2cc;align=left;verticalAlign=top;spacingLeft=4;spacingRight=4;overflow=hidden;rotatable=0;points=[[0,0.5],[1,0.5]];portConstraint=eastwest;" parent="IveBiRxqO5vdpKggcDoV-12" vertex="1"><mxGeometry y="26" width="140" height="26" as="geometry"/></mxCell><mxCell id="IveBiRxqO5vdpKggcDoV-14" value="user_id" style="text;strokeColor=#9673a6;fillColor=#e1d5e7;align=left;verticalAlign=top;spacingLeft=4;spacingRight=4;overflow=hidden;rotatable=0;points=[[0,0.5],[1,0.5]];portConstraint=eastwest;" parent="IveBiRxqO5vdpKggcDoV-12" vertex="1"><mxGeometry y="52" width="140" height="26" as="geometry"/></mxCell><mxCell id="IveBiRxqO5vdpKggcDoV-15" value="number" style="text;strokeColor=#666666;fillColor=#f5f5f5;align=left;verticalAlign=top;spacingLeft=4;spacingRight=4;overflow=hidden;rotatable=0;points=[[0,0.5],[1,0.5]];portConstraint=eastwest;fontColor=#333333;" parent="IveBiRxqO5vdpKggcDoV-12" vertex="1"><mxGeometry y="78" width="140" height="26" as="geometry"/></mxCell><mxCell id="IveBiRxqO5vdpKggcDoV-16" value="balance" style="text;strokeColor=#666666;fillColor=#f5f5f5;align=left;verticalAlign=top;spacingLeft=4;spacingRight=4;overflow=hidden;rotatable=0;points=[[0,0.5],[1,0.5]];portConstraint=eastwest;fontColor=#333333;" parent="IveBiRxqO5vdpKggcDoV-12" vertex="1"><mxGeometry y="104" width="140" height="26" as="geometry"/></mxCell><mxCell id="IveBiRxqO5vdpKggcDoV-18" value="" style="endArrow=none;html=1;rounded=0;entryX=0;entryY=0.5;entryDx=0;entryDy=0;exitX=1;exitY=0.5;exitDx=0;exitDy=0;" parent="1" source="IveBiRxqO5vdpKggcDoV-12" target="2EfxvqZbN9Tx3ir7eFEx-2" edge="1"><mxGeometry width="50" height="50" relative="1" as="geometry"><mxPoint x="580" y="410" as="sourcePoint"/><mxPoint x="630" y="360" as="targetPoint"/></mxGeometry></mxCell><mxCell id="IveBiRxqO5vdpKggcDoV-20" value="reserved_rooms" style="swimlane;fontStyle=0;childLayout=stackLayout;horizontal=1;startSize=26;horizontalStack=0;resizeParent=1;resizeParentMax=0;resizeLast=0;collapsible=1;marginBottom=0;" parent="1" vertex="1"><mxGeometry x="580" y="290" width="140" height="208" as="geometry"/></mxCell><mxCell id="IveBiRxqO5vdpKggcDoV-21" value="id" style="text;strokeColor=#d6b656;fillColor=#fff2cc;align=left;verticalAlign=top;spacingLeft=4;spacingRight=4;overflow=hidden;rotatable=0;points=[[0,0.5],[1,0.5]];portConstraint=eastwest;" parent="IveBiRxqO5vdpKggcDoV-20" vertex="1"><mxGeometry y="26" width="140" height="26" as="geometry"/></mxCell><mxCell id="IveBiRxqO5vdpKggcDoV-26" value="user_id" style="text;strokeColor=#9673a6;fillColor=#e1d5e7;align=left;verticalAlign=top;spacingLeft=4;spacingRight=4;overflow=hidden;rotatable=0;points=[[0,0.5],[1,0.5]];portConstraint=eastwest;" parent="IveBiRxqO5vdpKggcDoV-20" vertex="1"><mxGeometry y="52" width="140" height="26" as="geometry"/></mxCell><mxCell id="2EfxvqZbN9Tx3ir7eFEx-23" value="room_id" style="text;strokeColor=#9673a6;fillColor=#e1d5e7;align=left;verticalAlign=top;spacingLeft=4;spacingRight=4;overflow=hidden;rotatable=0;points=[[0,0.5],[1,0.5]];portConstraint=eastwest;" parent="IveBiRxqO5vdpKggcDoV-20" vertex="1"><mxGeometry y="78" width="140" height="26" as="geometry"/></mxCell><mxCell id="IveBiRxqO5vdpKggcDoV-32" value="price" style="text;strokeColor=#666666;fillColor=#f5f5f5;align=left;verticalAlign=top;spacingLeft=4;spacingRight=4;overflow=hidden;rotatable=0;points=[[0,0.5],[1,0.5]];portConstraint=eastwest;fontColor=#333333;" parent="IveBiRxqO5vdpKggcDoV-20" vertex="1"><mxGeometry y="104" width="140" height="26" as="geometry"/></mxCell><mxCell id="IveBiRxqO5vdpKggcDoV-28" value="status" style="text;align=left;verticalAlign=top;spacingLeft=4;spacingRight=4;overflow=hidden;rotatable=0;points=[[0,0.5],[1,0.5]];portConstraint=eastwest;fillColor=#f5f5f5;fontColor=#333333;strokeColor=#666666;" parent="IveBiRxqO5vdpKggcDoV-20" vertex="1"><mxGeometry y="130" width="140" height="26" as="geometry"/></mxCell><mxCell id="IveBiRxqO5vdpKggcDoV-29" value="start_date" style="text;align=left;verticalAlign=top;spacingLeft=4;spacingRight=4;overflow=hidden;rotatable=0;points=[[0,0.5],[1,0.5]];portConstraint=eastwest;fillColor=#f5f5f5;fontColor=#333333;strokeColor=#666666;" parent="IveBiRxqO5vdpKggcDoV-20" vertex="1"><mxGeometry y="156" width="140" height="26" as="geometry"/></mxCell><mxCell id="IveBiRxqO5vdpKggcDoV-31" value="end_date" style="text;align=left;verticalAlign=top;spacingLeft=4;spacingRight=4;overflow=hidden;rotatable=0;points=[[0,0.5],[1,0.5]];portConstraint=eastwest;fillColor=#f5f5f5;fontColor=#333333;strokeColor=#666666;" parent="IveBiRxqO5vdpKggcDoV-20" vertex="1"><mxGeometry y="182" width="140" height="26" as="geometry"/></mxCell><mxCell id="IveBiRxqO5vdpKggcDoV-27" value="" style="endArrow=none;html=1;rounded=0;exitX=0;exitY=0.5;exitDx=0;exitDy=0;entryX=1;entryY=0.5;entryDx=0;entryDy=0;" parent="1" source="IveBiRxqO5vdpKggcDoV-26" target="2EfxvqZbN9Tx3ir7eFEx-2" edge="1"><mxGeometry width="50" height="50" relative="1" as="geometry"><mxPoint x="450" y="410" as="sourcePoint"/><mxPoint x="500" y="360" as="targetPoint"/></mxGeometry></mxCell></root></mxGraphModel></diagram></mxfile>